<?xml version="1.0" encoding="UTF-8"?>
<svg xmlns="http://www.w3.org/2000/svg" width="210mm" height="297mm" viewBox="0 0 210 297">
<g fill="none" stroke-linecap="round" stroke-linejoin="round">
<line x1="-1" y1="-1" x2="1" y2="-1" stroke="#000000" stroke-width="0.5"/>
<line x1="-1" y1="-1" x2="-1" y2="4" stroke="#00ff00" stroke-width="0.2"/>
<line x1="-1" y1="4" x2="1" y2="4" stroke="#00ff00" stroke-width="0.2"/>
<line x1="1" y1="4" x2="1" y2="-1" stroke="#00ff00" stroke-width="0.2"/>
<line x1="1" y1="-1" x2="1" y2="1" stroke="#000000" stroke-width="0.5"/>
<line x1="1" y1="-1" x2="-4" y2="-1" stroke="#00ff00" stroke-width="0.2"/>
<line x1="-4" y1="-1" x2="-4" y2="1" stroke="#00ff00" stroke-width="0.2"/>
<line x1="-4" y1="1" x2="1" y2="1" stroke="#00ff00" stroke-width="0.2"/>
<line x1="1" y1="1" x2="-1" y2="-1" stroke="#000000" stroke-width="0.5"/>
<line x1="1" y1="1" x2="4.535534" y2="-2.535534" stroke="#00ff00" stroke-width="0.2"/>
<line x1="4.535534" y1="-2.535534" x2="2.535534" y2="-4.535534" stroke="#00ff00" stroke-width="0.2"/>
<line x1="2.535534" y1="-4.535534" x2="-1" y2="-1" stroke="#00ff00" stroke-width="0.2"/>
<line x1="-1" y1="1" x2="-1" y2="-1" stroke="#000000" stroke-width="0.5"/>
<line x1="-1" y1="1" x2="4" y2="1" stroke="#00ff00" stroke-width="0.2"/>
<line x1="4" y1="1" x2="4" y2="-1" stroke="#00ff00" stroke-width="0.2"/>
<line x1="4" y1="-1" x2="-1" y2="-1" stroke="#00ff00" stroke-width="0.2"/>
<line x1="-1" y1="-1" x2="1" y2="-1" stroke="#000000" stroke-width="0.5"/>
<line x1="-1" y1="-1" x2="-1" y2="4" stroke="#00ff00" stroke-width="0.2"/>
<line x1="-1" y1="4" x2="1" y2="4" stroke="#00ff00" stroke-width="0.2"/>
<line x1="1" y1="4" x2="1" y2="-1" stroke="#00ff00" stroke-width="0.2"/>
<line x1="1" y1="-1" x2="-1" y2="1" stroke="#000000" stroke-width="0.5"/>
<line x1="1" y1="-1" x2="-2.535534" y2="-4.535534" stroke="#00ff00" stroke-width="0.2"/>
<line x1="-2.535534" y1="-4.535534" x2="-4.535534" y2="-2.535534" stroke="#00ff00" stroke-width="0.2"/>
<line x1="-4.535534" y1="-2.535534" x2="-1" y2="1" stroke="#00ff00" stroke-width="0.2"/>
<line x1="1" y1="1" x2="-1" y2="1" stroke="#000000" stroke-width="0.5"/>
<line x1="1" y1="1" x2="1" y2="-4" stroke="#00ff00" stroke-width="0.2"/>
<line x1="1" y1="-4" x2="-1" y2="-4" stroke="#00ff00" stroke-width="0.2"/>
<line x1="-1" y1="-4" x2="-1" y2="1" stroke="#00ff00" stroke-width="0.2"/>
<line x1="-1" y1="1" x2="-1" y2="-1" stroke="#000000" stroke-width="0.5"/>
<line x1="-1" y1="1" x2="4" y2="1" stroke="#00ff00" stroke-width="0.2"/>
<line x1="4" y1="1" x2="4" y2="-1" stroke="#00ff00" stroke-width="0.2"/>
<line x1="4" y1="-1" x2="-1" y2="-1" stroke="#00ff00" stroke-width="0.2"/>
<line x1="-1" y1="-1" x2="1" y2="1" stroke="#000000" stroke-width="0.5"/>
<line x1="-1" y1="-1" x2="-4.535534" y2="2.535534" stroke="#00ff00" stroke-width="0.2"/>
<line x1="-4.535534" y1="2.535534" x2="-2.535534" y2="4.535534" stroke="#00ff00" stroke-width="0.2"/>
<line x1="-2.535534" y1="4.535534" x2="1" y2="1" stroke="#00ff00" stroke-width="0.2"/>
<line x1="1" y1="-1" x2="1" y2="-1" stroke="#000000" stroke-width="0.5"/>
<line x1="1" y1="-1" x2="-1" y2="-1" stroke="#000000" stroke-width="0.5"/>
<line x1="1" y1="-1" x2="1" y2="-6" stroke="#00ff00" stroke-width="0.2"/>
<line x1="1" y1="-6" x2="-1" y2="-6" stroke="#00ff00" stroke-width="0.2"/>
<line x1="-1" y1="-6" x2="-1" y2="-1" stroke="#00ff00" stroke-width="0.2"/>
<line x1="-1" y1="-1" x2="1" y2="-1" stroke="#000000" stroke-width="0.5"/>
<line x1="-1" y1="-1" x2="-1" y2="4" stroke="#00ff00" stroke-width="0.2"/>
<line x1="-1" y1="4" x2="1" y2="4" stroke="#00ff00" stroke-width="0.2"/>
<line x1="1" y1="4" x2="1" y2="-1" stroke="#00ff00" stroke-width="0.2"/>
<line x1="1" y1="-1" x2="1" y2="1" stroke="#000000" stroke-width="0.5"/>
<line x1="1" y1="-1" x2="-4" y2="-1" stroke="#00ff00" stroke-width="0.2"/>
<line x1="-4" y1="-1" x2="-4" y2="1" stroke="#00ff00" stroke-width="0.2"/>
<line x1="-4" y1="1" x2="1" y2="1" stroke="#00ff00" stroke-width="0.2"/>
<line x1="1" y1="1" x2="1" y2="1" stroke="#000000" stroke-width="0.5"/>
<line x1="1" y1="1" x2="1" y2="-1" stroke="#000000" stroke-width="0.5"/>
<line x1="1" y1="1" x2="6" y2="1" stroke="#00ff00" stroke-width="0.2"/>
<line x1="6" y1="1" x2="6" y2="-1" stroke="#00ff00" stroke-width="0.2"/>
<line x1="6" y1="-1" x2="1" y2="-1" stroke="#00ff00" stroke-width="0.2"/>
<line x1="1" y1="-1" x2="1" y2="1" stroke="#000000" stroke-width="0.5"/>
<line x1="1" y1="-1" x2="-4" y2="-1" stroke="#00ff00" stroke-width="0.2"/>
<line x1="-4" y1="-1" x2="-4" y2="1" stroke="#00ff00" stroke-width="0.2"/>
<line x1="-4" y1="1" x2="1" y2="1" stroke="#00ff00" stroke-width="0.2"/>
<line x1="1" y1="1" x2="-1" y2="1" stroke="#000000" stroke-width="0.5"/>
<line x1="1" y1="1" x2="1" y2="-4" stroke="#00ff00" stroke-width="0.2"/>
<line x1="1" y1="-4" x2="-1" y2="-4" stroke="#00ff00" stroke-width="0.2"/>
<line x1="-1" y1="-4" x2="-1" y2="1" stroke="#00ff00" stroke-width="0.2"/>
<line x1="-1" y1="1" x2="1" y2="-1" stroke="#000000" stroke-width="0.5"/>
<line x1="-1" y1="1" x2="2.535534" y2="4.535534" stroke="#00ff00" stroke-width="0.2"/>
<line x1="2.535534" y1="4.535534" x2="4.535534" y2="2.535534" stroke="#00ff00" stroke-width="0.2"/>
<line x1="4.535534" y1="2.535534" x2="1" y2="-1" stroke="#00ff00" stroke-width="0.2"/>
<line x1="-1" y1="1" x2="1" y2="1" stroke="#000000" stroke-width="0.5"/>
<line x1="-1" y1="1" x2="-1" y2="6" stroke="#00ff00" stroke-width="0.2"/>
<line x1="-1" y1="6" x2="1" y2="6" stroke="#00ff00" stroke-width="0.2"/>
<line x1="1" y1="6" x2="1" y2="1" stroke="#00ff00" stroke-width="0.2"/>
<line x1="1" y1="1" x2="-1" y2="1" stroke="#000000" stroke-width="0.5"/>
<line x1="1" y1="1" x2="1" y2="-4" stroke="#00ff00" stroke-width="0.2"/>
<line x1="1" y1="-4" x2="-1" y2="-4" stroke="#00ff00" stroke-width="0.2"/>
<line x1="-1" y1="-4" x2="-1" y2="1" stroke="#00ff00" stroke-width="0.2"/>
<line x1="-1" y1="1" x2="-1" y2="1" stroke="#000000" stroke-width="0.5"/>
<line x1="-1" y1="-1" x2="-1" y2="-1" stroke="#000000" stroke-width="0.5"/>
<line x1="-1" y1="-1" x2="-1" y2="1" stroke="#000000" stroke-width="0.5"/>
<line x1="-1" y1="-1" x2="-6" y2="-1" stroke="#00ff00" stroke-width="0.2"/>
<line x1="-6" y1="-1" x2="-6" y2="1" stroke="#00ff00" stroke-width="0.2"/>
<line x1="-6" y1="1" x2="-1" y2="1" stroke="#00ff00" stroke-width="0.2"/>
<line x1="-1" y1="1" x2="-1" y2="-1" stroke="#000000" stroke-width="0.5"/>
<line x1="-1" y1="1" x2="4" y2="1" stroke="#00ff00" stroke-width="0.2"/>
<line x1="4" y1="1" x2="4" y2="-1" stroke="#00ff00" stroke-width="0.2"/>
<line x1="4" y1="-1" x2="-1" y2="-1" stroke="#00ff00" stroke-width="0.2"/>
</g>
</svg>
